ISO-10303-21;
HEADER;
/* Generated by software containing ST-Developer
 * from STEP Tools, Inc. (www.steptools.com) 
 */

FILE_DESCRIPTION(
/* description */ (''),
/* implementation_level */ '2;1');

FILE_NAME(
/* name */ 'umbrella cover.step',
/* time_stamp */ '2026-09-15T21:12:01+05:30',
/* author */ (''),
/* organization */ (''),
/* preprocessor_version */ 'ST-DEVELOPER v20.2',
/* originating_system */ 'Autodesk Translation Framework v15.15.0.0',
/* authorisation */ '');

FILE_SCHEMA (('AUTOMOTIVE_DESIGN { 1 0 10303 214 3 1 1 }'));
ENDSEC;

DATA;
#10=MECHANICAL_DESIGN_GEOMETRIC_PRESENTATION_REPRESENTATION('',(#29,#30),
#1179);
#11=SHAPE_REPRESENTATION_RELATIONSHIP('SRR','None',#1186,#12);
#12=ADVANCED_BREP_SHAPE_REPRESENTATION('',(#31,#32),#1178);
#13=FACE_BOUND('',#203,.T.);
#14=FACE_BOUND('',#204,.T.);
#15=ELLIPSE('',#636,7.16299198160937,5.065);
#16=ELLIPSE('',#637,7.16299169341972,5.065);
#17=ELLIPSE('',#639,7.16299169341972,5.065);
#18=ELLIPSE('',#640,7.16299169341973,5.065);
#19=B_SPLINE_CURVE_WITH_KNOTS('',3,(#930,#931,#932,#933,#934,#935,#936,
#937),.UNSPECIFIED.,.F.,.F.,(4,2,2,4),(0.,0.424135389427649,0.610592684765707,
0.748821859177475),.UNSPECIFIED.);
#20=B_SPLINE_CURVE_WITH_KNOTS('',3,(#939,#940,#941,#942,#943,#944,#945,
#946,#947),.UNSPECIFIED.,.F.,.F.,(4,1,1,1,1,1,4),(0.404544817678064,1.05787979795042,
1.3845472880866,2.03788226835896,2.36454975849514,2.52788350356323,2.69121724863132),
 .UNSPECIFIED.);
#21=B_SPLINE_CURVE_WITH_KNOTS('',3,(#950,#951,#952,#953,#954,#955,#956,
#957,#958),.UNSPECIFIED.,.F.,.F.,(4,1,1,1,1,1,4),(-2.69121724863132,-2.52788350356323,
-2.36454975849514,-2.03788226835896,-1.3845472880866,-1.05787979795042,
-0.947558970993335),.UNSPECIFIED.);
#22=B_SPLINE_CURVE_WITH_KNOTS('',3,(#979,#980,#981,#982),.UNSPECIFIED.,
 .F.,.F.,(4,4),(0.,0.196282497345452),.UNSPECIFIED.);
#23=B_SPLINE_CURVE_WITH_KNOTS('',3,(#1057,#1058,#1059,#1060,#1061,#1062,
#1063,#1064),.UNSPECIFIED.,.F.,.F.,(4,2,2,4),(0.,0.0413472117777473,0.158284826989669,
0.550471066344736),.UNSPECIFIED.);
#24=B_SPLINE_CURVE_WITH_KNOTS('',3,(#1065,#1066,#1067,#1068,#1069,#1070,
#1071,#1072,#1073),.UNSPECIFIED.,.F.,.F.,(4,1,1,1,1,1,4),(0.94757749399512,
1.05782217227066,1.38448754360404,2.03781828627082,2.3644836576042,2.5278163432709,
2.69114902893759),.UNSPECIFIED.);
#25=B_SPLINE_CURVE_WITH_KNOTS('',3,(#1074,#1075,#1076,#1077,#1078,#1079,
#1080,#1081,#1082),.UNSPECIFIED.,.F.,.F.,(4,1,1,1,1,1,4),(-2.69114902893759,
-2.5278163432709,-2.3644836576042,-2.03781828627082,-1.38448754360404,-1.05782217227066,
-0.404491429603883),.UNSPECIFIED.);
#26=B_SPLINE_CURVE_WITH_KNOTS('',3,(#1090,#1091,#1092,#1093),
 .UNSPECIFIED.,.F.,.F.,(4,4),(3.29046324314354,3.48674574048899),
 .UNSPECIFIED.);
#27=B_SPLINE_SURFACE_WITH_KNOTS('',3,3,((#874,#875,#876,#877,#878,#879,
#880,#881,#882),(#883,#884,#885,#886,#887,#888,#889,#890,#891),(#892,#893,
#894,#895,#896,#897,#898,#899,#900),(#901,#902,#903,#904,#905,#906,#907,
#908,#909),(#910,#911,#912,#913,#914,#915,#916,#917,#918),(#919,#920,#921,
#922,#923,#924,#925,#926,#927)),.UNSPECIFIED.,.F.,.F.,.F.,(4,1,1,4),(4,
1,1,1,1,1,4),(0.,0.285714285714286,0.571428571428571,1.),(0.404544817678064,
1.05787979795042,1.3845472880866,2.03788226835896,2.36454975849514,2.52788350356323,
2.69121724863132),.UNSPECIFIED.);
#28=B_SPLINE_SURFACE_WITH_KNOTS('',3,3,((#1001,#1002,#1003,#1004,#1005,
#1006,#1007,#1008,#1009),(#1010,#1011,#1012,#1013,#1014,#1015,#1016,#1017,
#1018),(#1019,#1020,#1021,#1022,#1023,#1024,#1025,#1026,#1027),(#1028,#1029,
#1030,#1031,#1032,#1033,#1034,#1035,#1036),(#1037,#1038,#1039,#1040,#1041,
#1042,#1043,#1044,#1045),(#1046,#1047,#1048,#1049,#1050,#1051,#1052,#1053,
#1054)),.UNSPECIFIED.,.F.,.F.,.F.,(4,1,1,4),(4,1,1,1,1,1,4),(0.,0.285714285714286,
0.571428571428571,1.),(0.404491429603883,1.05782217227066,1.38448754360404,
2.03781828627082,2.3644836576042,2.5278163432709,2.69114902893759),
 .UNSPECIFIED.);
#29=STYLED_ITEM('',(#1196),#31);
#30=STYLED_ITEM('',(#1197),#32);
#31=MANIFOLD_SOLID_BREP('Body1',#584);
#32=MANIFOLD_SOLID_BREP('Body2',#585);
#33=LINE('',#859,#72);
#34=LINE('',#871,#73);
#35=LINE('',#969,#74);
#36=LINE('',#970,#75);
#37=LINE('',#973,#76);
#38=LINE('',#975,#77);
#39=LINE('',#976,#78);
#40=LINE('',#984,#79);
#41=LINE('',#991,#80);
#42=LINE('',#994,#81);
#43=LINE('',#1085,#82);
#44=LINE('',#1089,#83);
#45=LINE('',#1096,#84);
#46=LINE('',#1097,#85);
#47=LINE('',#1101,#86);
#48=LINE('',#1105,#87);
#49=LINE('',#1110,#88);
#50=LINE('',#1114,#89);
#51=LINE('',#1117,#90);
#52=LINE('',#1118,#91);
#53=LINE('',#1119,#92);
#54=LINE('',#1120,#93);
#55=LINE('',#1122,#94);
#56=LINE('',#1123,#95);
#57=LINE('',#1124,#96);
#58=LINE('',#1125,#97);
#59=LINE('',#1128,#98);
#60=LINE('',#1129,#99);
#61=LINE('',#1132,#100);
#62=LINE('',#1133,#101);
#63=LINE('',#1136,#102);
#64=LINE('',#1137,#103);
#65=LINE('',#1139,#104);
#66=LINE('',#1141,#105);
#67=LINE('',#1145,#106);
#68=LINE('',#1146,#107);
#69=LINE('',#1157,#108);
#70=LINE('',#1162,#109);
#71=LINE('',#1171,#110);
#72=VECTOR('',#684,50.);
#73=VECTOR('',#699,50.);
#74=VECTOR('',#718,10.13);
#75=VECTOR('',#719,10.13);
#76=VECTOR('',#722,10.13);
#77=VECTOR('',#723,10.13);
#78=VECTOR('',#724,10.13);
#79=VECTOR('',#727,10.13);
#80=VECTOR('',#734,10.13);
#81=VECTOR('',#737,10.13);
#82=VECTOR('',#748,10.13);
#83=VECTOR('',#751,10.13);
#84=VECTOR('',#754,10.13);
#85=VECTOR('',#755,10.13);
#86=VECTOR('',#758,10.13);
#87=VECTOR('',#761,10.13);
#88=VECTOR('',#766,10.13);
#89=VECTOR('',#769,10.13);
#90=VECTOR('',#774,10.13);
#91=VECTOR('',#775,10.13);
#92=VECTOR('',#776,10.13);
#93=VECTOR('',#777,10.13);
#94=VECTOR('',#780,10.13);
#95=VECTOR('',#781,10.13);
#96=VECTOR('',#782,10.13);
#97=VECTOR('',#783,10.13);
#98=VECTOR('',#786,10.13);
#99=VECTOR('',#787,10.13);
#100=VECTOR('',#790,10.13);
#101=VECTOR('',#791,10.13);
#102=VECTOR('',#794,10.13);
#103=VECTOR('',#795,10.13);
#104=VECTOR('',#798,10.13);
#105=VECTOR('',#801,5.5715);
#106=VECTOR('',#806,10.13);
#107=VECTOR('',#807,10.13);
#108=VECTOR('',#820,53.689);
#109=VECTOR('',#827,10.13);
#110=VECTOR('',#838,53.689);
#111=CYLINDRICAL_SURFACE('',#605,50.);
#112=CYLINDRICAL_SURFACE('',#612,45.);
#113=CYLINDRICAL_SURFACE('',#620,9.6235);
#114=CYLINDRICAL_SURFACE('',#623,5.5715);
#115=CYLINDRICAL_SURFACE('',#625,9.6235);
#116=CYLINDRICAL_SURFACE('',#632,5.5715);
#117=CYLINDRICAL_SURFACE('',#635,5.065);
#118=CYLINDRICAL_SURFACE('',#638,5.065);
#119=CYLINDRICAL_SURFACE('',#641,5.065);
#120=CYLINDRICAL_SURFACE('',#642,5.065);
#121=CYLINDRICAL_SURFACE('',#647,5.5715);
#122=CYLINDRICAL_SURFACE('',#655,53.689);
#123=CYLINDRICAL_SURFACE('',#663,50.65);
#124=PLANE('',#604);
#125=PLANE('',#614);
#126=PLANE('',#622);
#127=PLANE('',#634);
#128=PLANE('',#643);
#129=PLANE('',#644);
#130=PLANE('',#645);
#131=PLANE('',#646);
#132=PLANE('',#648);
#133=PLANE('',#649);
#134=PLANE('',#658);
#135=PLANE('',#665);
#136=PLANE('',#666);
#137=PLANE('',#667);
#138=FACE_OUTER_BOUND('',#173,.T.);
#139=FACE_OUTER_BOUND('',#174,.T.);
#140=FACE_OUTER_BOUND('',#175,.T.);
#141=FACE_OUTER_BOUND('',#176,.T.);
#142=FACE_OUTER_BOUND('',#177,.T.);
#143=FACE_OUTER_BOUND('',#178,.T.);
#144=FACE_OUTER_BOUND('',#179,.T.);
#145=FACE_OUTER_BOUND('',#180,.T.);
#146=FACE_OUTER_BOUND('',#181,.T.);
#147=FACE_OUTER_BOUND('',#182,.T.);
#148=FACE_OUTER_BOUND('',#183,.T.);
#149=FACE_OUTER_BOUND('',#184,.T.);
#150=FACE_OUTER_BOUND('',#185,.T.);
#151=FACE_OUTER_BOUND('',#186,.T.);
#152=FACE_OUTER_BOUND('',#187,.T.);
#153=FACE_OUTER_BOUND('',#188,.T.);
#154=FACE_OUTER_BOUND('',#189,.T.);
#155=FACE_OUTER_BOUND('',#190,.T.);
#156=FACE_OUTER_BOUND('',#191,.T.);
#157=FACE_OUTER_BOUND('',#192,.T.);
#158=FACE_OUTER_BOUND('',#193,.T.);
#159=FACE_OUTER_BOUND('',#194,.T.);
#160=FACE_OUTER_BOUND('',#195,.T.);
#161=FACE_OUTER_BOUND('',#196,.T.);
#162=FACE_OUTER_BOUND('',#197,.T.);
#163=FACE_OUTER_BOUND('',#198,.T.);
#164=FACE_OUTER_BOUND('',#199,.T.);
#165=FACE_OUTER_BOUND('',#200,.T.);
#166=FACE_OUTER_BOUND('',#201,.T.);
#167=FACE_OUTER_BOUND('',#202,.T.);
#168=FACE_OUTER_BOUND('',#205,.T.);
#169=FACE_OUTER_BOUND('',#206,.T.);
#170=FACE_OUTER_BOUND('',#207,.T.);
#171=FACE_OUTER_BOUND('',#208,.T.);
#172=FACE_OUTER_BOUND('',#209,.T.);
#173=EDGE_LOOP('',(#377,#378,#379,#380,#381));
#174=EDGE_LOOP('',(#382));
#175=EDGE_LOOP('',(#383,#384,#385,#386,#387,#388));
#176=EDGE_LOOP('',(#389,#390,#391,#392,#393,#394));
#177=EDGE_LOOP('',(#395,#396,#397,#398,#399));
#178=EDGE_LOOP('',(#400));
#179=EDGE_LOOP('',(#401,#402,#403,#404));
#180=EDGE_LOOP('',(#405,#406,#407,#408));
#181=EDGE_LOOP('',(#409,#410,#411,#412));
#182=EDGE_LOOP('',(#413,#414,#415,#416));
#183=EDGE_LOOP('',(#417,#418,#419,#420,#421,#422));
#184=EDGE_LOOP('',(#423,#424,#425,#426));
#185=EDGE_LOOP('',(#427,#428,#429,#430));
#186=EDGE_LOOP('',(#431,#432,#433,#434));
#187=EDGE_LOOP('',(#435,#436,#437,#438,#439,#440));
#188=EDGE_LOOP('',(#441,#442,#443,#444));
#189=EDGE_LOOP('',(#445,#446,#447,#448));
#190=EDGE_LOOP('',(#449,#450,#451,#452));
#191=EDGE_LOOP('',(#453,#454,#455,#456,#457,#458));
#192=EDGE_LOOP('',(#459,#460,#461,#462,#463,#464,#465,#466,#467,#468));
#193=EDGE_LOOP('',(#469,#470,#471,#472,#473));
#194=EDGE_LOOP('',(#474,#475,#476,#477,#478));
#195=EDGE_LOOP('',(#479,#480,#481,#482));
#196=EDGE_LOOP('',(#483,#484,#485,#486));
#197=EDGE_LOOP('',(#487,#488,#489,#490));
#198=EDGE_LOOP('',(#491,#492,#493,#494));
#199=EDGE_LOOP('',(#495,#496,#497,#498));
#200=EDGE_LOOP('',(#499,#500,#501,#502,#503));
#201=EDGE_LOOP('',(#504,#505,#506,#507,#508,#509));
#202=EDGE_LOOP('',(#510));
#203=EDGE_LOOP('',(#511,#512,#513,#514,#515));
#204=EDGE_LOOP('',(#516,#517,#518,#519,#520));
#205=EDGE_LOOP('',(#521,#522,#523,#524,#525,#526));
#206=EDGE_LOOP('',(#527,#528,#529,#530,#531));
#207=EDGE_LOOP('',(#532));
#208=EDGE_LOOP('',(#533,#534,#535,#536,#537,#538));
#209=EDGE_LOOP('',(#539,#540,#541,#542));
#210=CIRCLE('',#600,50.);
#211=CIRCLE('',#601,50.);
#212=CIRCLE('',#602,10.);
#213=CIRCLE('',#603,40.);
#214=CIRCLE('',#606,50.);
#215=CIRCLE('',#607,50.);
#216=CIRCLE('',#609,45.);
#217=CIRCLE('',#610,45.);
#218=CIRCLE('',#611,5.75);
#219=CIRCLE('',#613,45.);
#220=CIRCLE('',#615,9.6235);
#221=CIRCLE('',#617,9.62350000000001);
#222=CIRCLE('',#618,15.195);
#223=CIRCLE('',#619,5.5715);
#224=CIRCLE('',#621,9.6235);
#225=CIRCLE('',#624,5.5715);
#226=CIRCLE('',#626,9.6235);
#227=CIRCLE('',#627,9.6235);
#228=CIRCLE('',#629,9.6235);
#229=CIRCLE('',#630,15.195);
#230=CIRCLE('',#631,5.5715);
#231=CIRCLE('',#633,5.5715);
#232=CIRCLE('',#651,46.0915);
#233=CIRCLE('',#652,7.5975);
#234=CIRCLE('',#653,53.689);
#235=CIRCLE('',#654,53.689);
#236=CIRCLE('',#656,53.689);
#237=CIRCLE('',#657,53.689);
#238=CIRCLE('',#660,3.5455);
#239=CIRCLE('',#661,50.65);
#240=CIRCLE('',#662,50.65);
#241=CIRCLE('',#664,50.65);
#242=VERTEX_POINT('',#849);
#243=VERTEX_POINT('',#850);
#244=VERTEX_POINT('',#853);
#245=VERTEX_POINT('',#858);
#246=VERTEX_POINT('',#860);
#247=VERTEX_POINT('',#864);
#248=VERTEX_POINT('',#865);
#249=VERTEX_POINT('',#870);
#250=VERTEX_POINT('',#928);
#251=VERTEX_POINT('',#929);
#252=VERTEX_POINT('',#938);
#253=VERTEX_POINT('',#948);
#254=VERTEX_POINT('',#960);
#255=VERTEX_POINT('',#961);
#256=VERTEX_POINT('',#966);
#257=VERTEX_POINT('',#967);
#258=VERTEX_POINT('',#972);
#259=VERTEX_POINT('',#974);
#260=VERTEX_POINT('',#978);
#261=VERTEX_POINT('',#983);
#262=VERTEX_POINT('',#987);
#263=VERTEX_POINT('',#988);
#264=VERTEX_POINT('',#990);
#265=VERTEX_POINT('',#992);
#266=VERTEX_POINT('',#996);
#267=VERTEX_POINT('',#997);
#268=VERTEX_POINT('',#1055);
#269=VERTEX_POINT('',#1056);
#270=VERTEX_POINT('',#1084);
#271=VERTEX_POINT('',#1086);
#272=VERTEX_POINT('',#1088);
#273=VERTEX_POINT('',#1095);
#274=VERTEX_POINT('',#1099);
#275=VERTEX_POINT('',#1100);
#276=VERTEX_POINT('',#1102);
#277=VERTEX_POINT('',#1104);
#278=VERTEX_POINT('',#1108);
#279=VERTEX_POINT('',#1109);
#280=VERTEX_POINT('',#1111);
#281=VERTEX_POINT('',#1113);
#282=VERTEX_POINT('',#1127);
#283=VERTEX_POINT('',#1131);
#284=VERTEX_POINT('',#1135);
#285=VERTEX_POINT('',#1144);
#286=VERTEX_POINT('',#1148);
#287=VERTEX_POINT('',#1150);
#288=VERTEX_POINT('',#1152);
#289=VERTEX_POINT('',#1156);
#290=VERTEX_POINT('',#1158);
#291=VERTEX_POINT('',#1164);
#292=VERTEX_POINT('',#1166);
#293=VERTEX_POINT('',#1170);
#294=EDGE_CURVE('',#242,#243,#210,.T.);
#295=EDGE_CURVE('',#243,#242,#211,.T.);
#296=EDGE_CURVE('',#242,#244,#212,.T.);
#297=EDGE_CURVE('',#244,#244,#213,.T.);
#298=EDGE_CURVE('',#243,#245,#33,.T.);
#299=EDGE_CURVE('',#245,#246,#214,.T.);
#300=EDGE_CURVE('',#246,#245,#215,.T.);
#301=EDGE_CURVE('',#247,#248,#216,.T.);
#302=EDGE_CURVE('',#248,#247,#217,.T.);
#303=EDGE_CURVE('',#247,#246,#218,.T.);
#304=EDGE_CURVE('',#248,#249,#34,.T.);
#305=EDGE_CURVE('',#249,#249,#219,.T.);
#306=EDGE_CURVE('',#250,#251,#19,.T.);
#307=EDGE_CURVE('',#251,#252,#20,.T.);
#308=EDGE_CURVE('',#252,#253,#220,.T.);
#309=EDGE_CURVE('',#253,#250,#21,.T.);
#310=EDGE_CURVE('',#254,#255,#221,.T.);
#311=EDGE_CURVE('',#255,#253,#222,.T.);
#312=EDGE_CURVE('',#252,#254,#223,.T.);
#313=EDGE_CURVE('',#256,#257,#224,.T.);
#314=EDGE_CURVE('',#257,#255,#35,.T.);
#315=EDGE_CURVE('',#254,#256,#36,.T.);
#316=EDGE_CURVE('',#258,#254,#37,.T.);
#317=EDGE_CURVE('',#259,#258,#38,.T.);
#318=EDGE_CURVE('',#256,#259,#39,.T.);
#319=EDGE_CURVE('',#260,#251,#22,.T.);
#320=EDGE_CURVE('',#260,#261,#40,.T.);
#321=EDGE_CURVE('',#261,#258,#225,.F.);
#322=EDGE_CURVE('',#262,#263,#226,.F.);
#323=EDGE_CURVE('',#262,#264,#41,.T.);
#324=EDGE_CURVE('',#264,#265,#227,.T.);
#325=EDGE_CURVE('',#265,#263,#42,.T.);
#326=EDGE_CURVE('',#266,#267,#228,.T.);
#327=EDGE_CURVE('',#267,#265,#229,.T.);
#328=EDGE_CURVE('',#264,#266,#230,.T.);
#329=EDGE_CURVE('',#268,#269,#23,.T.);
#330=EDGE_CURVE('',#269,#267,#24,.T.);
#331=EDGE_CURVE('',#266,#268,#25,.T.);
#332=EDGE_CURVE('',#264,#270,#43,.T.);
#333=EDGE_CURVE('',#271,#270,#231,.T.);
#334=EDGE_CURVE('',#272,#271,#44,.T.);
#335=EDGE_CURVE('',#268,#272,#26,.T.);
#336=EDGE_CURVE('',#262,#273,#45,.T.);
#337=EDGE_CURVE('',#270,#273,#46,.T.);
#338=EDGE_CURVE('',#274,#275,#47,.T.);
#339=EDGE_CURVE('',#275,#276,#15,.T.);
#340=EDGE_CURVE('',#276,#277,#48,.T.);
#341=EDGE_CURVE('',#277,#274,#16,.T.);
#342=EDGE_CURVE('',#278,#279,#49,.T.);
#343=EDGE_CURVE('',#280,#279,#17,.T.);
#344=EDGE_CURVE('',#280,#281,#50,.T.);
#345=EDGE_CURVE('',#278,#281,#18,.T.);
#346=EDGE_CURVE('',#263,#281,#51,.T.);
#347=EDGE_CURVE('',#257,#263,#52,.T.);
#348=EDGE_CURVE('',#274,#257,#53,.T.);
#349=EDGE_CURVE('',#277,#278,#54,.T.);
#350=EDGE_CURVE('',#275,#260,#55,.T.);
#351=EDGE_CURVE('',#250,#269,#56,.T.);
#352=EDGE_CURVE('',#272,#280,#57,.T.);
#353=EDGE_CURVE('',#279,#276,#58,.T.);
#354=EDGE_CURVE('',#282,#259,#59,.T.);
#355=EDGE_CURVE('',#274,#282,#60,.T.);
#356=EDGE_CURVE('',#281,#283,#61,.T.);
#357=EDGE_CURVE('',#273,#283,#62,.T.);
#358=EDGE_CURVE('',#280,#284,#63,.T.);
#359=EDGE_CURVE('',#283,#284,#64,.T.);
#360=EDGE_CURVE('',#284,#271,#65,.T.);
#361=EDGE_CURVE('',#253,#267,#66,.T.);
#362=EDGE_CURVE('',#275,#285,#67,.T.);
#363=EDGE_CURVE('',#261,#285,#68,.T.);
#364=EDGE_CURVE('',#286,#286,#232,.T.);
#365=EDGE_CURVE('',#286,#287,#233,.T.);
#366=EDGE_CURVE('',#287,#288,#234,.T.);
#367=EDGE_CURVE('',#288,#287,#235,.T.);
#368=EDGE_CURVE('',#288,#289,#69,.T.);
#369=EDGE_CURVE('',#290,#289,#236,.T.);
#370=EDGE_CURVE('',#289,#290,#237,.T.);
#371=EDGE_CURVE('',#285,#282,#70,.T.);
#372=EDGE_CURVE('',#290,#291,#238,.T.);
#373=EDGE_CURVE('',#291,#292,#239,.T.);
#374=EDGE_CURVE('',#292,#291,#240,.T.);
#375=EDGE_CURVE('',#292,#293,#71,.T.);
#376=EDGE_CURVE('',#293,#293,#241,.F.);
#377=ORIENTED_EDGE('',*,*,#294,.T.);
#378=ORIENTED_EDGE('',*,*,#295,.T.);
#379=ORIENTED_EDGE('',*,*,#296,.T.);
#380=ORIENTED_EDGE('',*,*,#297,.T.);
#381=ORIENTED_EDGE('',*,*,#296,.F.);
#382=ORIENTED_EDGE('',*,*,#297,.F.);
#383=ORIENTED_EDGE('',*,*,#294,.F.);
#384=ORIENTED_EDGE('',*,*,#295,.F.);
#385=ORIENTED_EDGE('',*,*,#298,.T.);
#386=ORIENTED_EDGE('',*,*,#299,.T.);
#387=ORIENTED_EDGE('',*,*,#300,.T.);
#388=ORIENTED_EDGE('',*,*,#298,.F.);
#389=ORIENTED_EDGE('',*,*,#301,.T.);
#390=ORIENTED_EDGE('',*,*,#302,.T.);
#391=ORIENTED_EDGE('',*,*,#303,.T.);
#392=ORIENTED_EDGE('',*,*,#299,.F.);
#393=ORIENTED_EDGE('',*,*,#300,.F.);
#394=ORIENTED_EDGE('',*,*,#303,.F.);
#395=ORIENTED_EDGE('',*,*,#301,.F.);
#396=ORIENTED_EDGE('',*,*,#302,.F.);
#397=ORIENTED_EDGE('',*,*,#304,.T.);
#398=ORIENTED_EDGE('',*,*,#305,.F.);
#399=ORIENTED_EDGE('',*,*,#304,.F.);
#400=ORIENTED_EDGE('',*,*,#305,.T.);
#401=ORIENTED_EDGE('',*,*,#306,.T.);
#402=ORIENTED_EDGE('',*,*,#307,.T.);
#403=ORIENTED_EDGE('',*,*,#308,.T.);
#404=ORIENTED_EDGE('',*,*,#309,.T.);
#405=ORIENTED_EDGE('',*,*,#310,.T.);
#406=ORIENTED_EDGE('',*,*,#311,.T.);
#407=ORIENTED_EDGE('',*,*,#308,.F.);
#408=ORIENTED_EDGE('',*,*,#312,.T.);
#409=ORIENTED_EDGE('',*,*,#313,.T.);
#410=ORIENTED_EDGE('',*,*,#314,.T.);
#411=ORIENTED_EDGE('',*,*,#310,.F.);
#412=ORIENTED_EDGE('',*,*,#315,.T.);
#413=ORIENTED_EDGE('',*,*,#315,.F.);
#414=ORIENTED_EDGE('',*,*,#316,.F.);
#415=ORIENTED_EDGE('',*,*,#317,.F.);
#416=ORIENTED_EDGE('',*,*,#318,.F.);
#417=ORIENTED_EDGE('',*,*,#312,.F.);
#418=ORIENTED_EDGE('',*,*,#307,.F.);
#419=ORIENTED_EDGE('',*,*,#319,.F.);
#420=ORIENTED_EDGE('',*,*,#320,.T.);
#421=ORIENTED_EDGE('',*,*,#321,.T.);
#422=ORIENTED_EDGE('',*,*,#316,.T.);
#423=ORIENTED_EDGE('',*,*,#322,.F.);
#424=ORIENTED_EDGE('',*,*,#323,.T.);
#425=ORIENTED_EDGE('',*,*,#324,.T.);
#426=ORIENTED_EDGE('',*,*,#325,.T.);
#427=ORIENTED_EDGE('',*,*,#326,.T.);
#428=ORIENTED_EDGE('',*,*,#327,.T.);
#429=ORIENTED_EDGE('',*,*,#324,.F.);
#430=ORIENTED_EDGE('',*,*,#328,.T.);
#431=ORIENTED_EDGE('',*,*,#329,.T.);
#432=ORIENTED_EDGE('',*,*,#330,.T.);
#433=ORIENTED_EDGE('',*,*,#326,.F.);
#434=ORIENTED_EDGE('',*,*,#331,.T.);
#435=ORIENTED_EDGE('',*,*,#331,.F.);
#436=ORIENTED_EDGE('',*,*,#328,.F.);
#437=ORIENTED_EDGE('',*,*,#332,.T.);
#438=ORIENTED_EDGE('',*,*,#333,.F.);
#439=ORIENTED_EDGE('',*,*,#334,.F.);
#440=ORIENTED_EDGE('',*,*,#335,.F.);
#441=ORIENTED_EDGE('',*,*,#323,.F.);
#442=ORIENTED_EDGE('',*,*,#336,.T.);
#443=ORIENTED_EDGE('',*,*,#337,.F.);
#444=ORIENTED_EDGE('',*,*,#332,.F.);
#445=ORIENTED_EDGE('',*,*,#338,.T.);
#446=ORIENTED_EDGE('',*,*,#339,.T.);
#447=ORIENTED_EDGE('',*,*,#340,.T.);
#448=ORIENTED_EDGE('',*,*,#341,.T.);
#449=ORIENTED_EDGE('',*,*,#342,.T.);
#450=ORIENTED_EDGE('',*,*,#343,.F.);
#451=ORIENTED_EDGE('',*,*,#344,.T.);
#452=ORIENTED_EDGE('',*,*,#345,.F.);
#453=ORIENTED_EDGE('',*,*,#346,.F.);
#454=ORIENTED_EDGE('',*,*,#347,.F.);
#455=ORIENTED_EDGE('',*,*,#348,.F.);
#456=ORIENTED_EDGE('',*,*,#341,.F.);
#457=ORIENTED_EDGE('',*,*,#349,.T.);
#458=ORIENTED_EDGE('',*,*,#345,.T.);
#459=ORIENTED_EDGE('',*,*,#339,.F.);
#460=ORIENTED_EDGE('',*,*,#350,.T.);
#461=ORIENTED_EDGE('',*,*,#319,.T.);
#462=ORIENTED_EDGE('',*,*,#306,.F.);
#463=ORIENTED_EDGE('',*,*,#351,.T.);
#464=ORIENTED_EDGE('',*,*,#329,.F.);
#465=ORIENTED_EDGE('',*,*,#335,.T.);
#466=ORIENTED_EDGE('',*,*,#352,.T.);
#467=ORIENTED_EDGE('',*,*,#343,.T.);
#468=ORIENTED_EDGE('',*,*,#353,.T.);
#469=ORIENTED_EDGE('',*,*,#348,.T.);
#470=ORIENTED_EDGE('',*,*,#313,.F.);
#471=ORIENTED_EDGE('',*,*,#318,.T.);
#472=ORIENTED_EDGE('',*,*,#354,.F.);
#473=ORIENTED_EDGE('',*,*,#355,.F.);
#474=ORIENTED_EDGE('',*,*,#346,.T.);
#475=ORIENTED_EDGE('',*,*,#356,.T.);
#476=ORIENTED_EDGE('',*,*,#357,.F.);
#477=ORIENTED_EDGE('',*,*,#336,.F.);
#478=ORIENTED_EDGE('',*,*,#322,.T.);
#479=ORIENTED_EDGE('',*,*,#344,.F.);
#480=ORIENTED_EDGE('',*,*,#358,.T.);
#481=ORIENTED_EDGE('',*,*,#359,.F.);
#482=ORIENTED_EDGE('',*,*,#356,.F.);
#483=ORIENTED_EDGE('',*,*,#352,.F.);
#484=ORIENTED_EDGE('',*,*,#334,.T.);
#485=ORIENTED_EDGE('',*,*,#360,.F.);
#486=ORIENTED_EDGE('',*,*,#358,.F.);
#487=ORIENTED_EDGE('',*,*,#309,.F.);
#488=ORIENTED_EDGE('',*,*,#361,.T.);
#489=ORIENTED_EDGE('',*,*,#330,.F.);
#490=ORIENTED_EDGE('',*,*,#351,.F.);
#491=ORIENTED_EDGE('',*,*,#342,.F.);
#492=ORIENTED_EDGE('',*,*,#349,.F.);
#493=ORIENTED_EDGE('',*,*,#340,.F.);
#494=ORIENTED_EDGE('',*,*,#353,.F.);
#495=ORIENTED_EDGE('',*,*,#350,.F.);
#496=ORIENTED_EDGE('',*,*,#362,.T.);
#497=ORIENTED_EDGE('',*,*,#363,.F.);
#498=ORIENTED_EDGE('',*,*,#320,.F.);
#499=ORIENTED_EDGE('',*,*,#364,.T.);
#500=ORIENTED_EDGE('',*,*,#365,.T.);
#501=ORIENTED_EDGE('',*,*,#366,.T.);
#502=ORIENTED_EDGE('',*,*,#367,.T.);
#503=ORIENTED_EDGE('',*,*,#365,.F.);
#504=ORIENTED_EDGE('',*,*,#367,.F.);
#505=ORIENTED_EDGE('',*,*,#368,.T.);
#506=ORIENTED_EDGE('',*,*,#369,.F.);
#507=ORIENTED_EDGE('',*,*,#370,.F.);
#508=ORIENTED_EDGE('',*,*,#368,.F.);
#509=ORIENTED_EDGE('',*,*,#366,.F.);
#510=ORIENTED_EDGE('',*,*,#364,.F.);
#511=ORIENTED_EDGE('',*,*,#333,.T.);
#512=ORIENTED_EDGE('',*,*,#337,.T.);
#513=ORIENTED_EDGE('',*,*,#357,.T.);
#514=ORIENTED_EDGE('',*,*,#359,.T.);
#515=ORIENTED_EDGE('',*,*,#360,.T.);
#516=ORIENTED_EDGE('',*,*,#317,.T.);
#517=ORIENTED_EDGE('',*,*,#321,.F.);
#518=ORIENTED_EDGE('',*,*,#363,.T.);
#519=ORIENTED_EDGE('',*,*,#371,.T.);
#520=ORIENTED_EDGE('',*,*,#354,.T.);
#521=ORIENTED_EDGE('',*,*,#369,.T.);
#522=ORIENTED_EDGE('',*,*,#370,.T.);
#523=ORIENTED_EDGE('',*,*,#372,.T.);
#524=ORIENTED_EDGE('',*,*,#373,.T.);
#525=ORIENTED_EDGE('',*,*,#374,.T.);
#526=ORIENTED_EDGE('',*,*,#372,.F.);
#527=ORIENTED_EDGE('',*,*,#373,.F.);
#528=ORIENTED_EDGE('',*,*,#374,.F.);
#529=ORIENTED_EDGE('',*,*,#375,.T.);
#530=ORIENTED_EDGE('',*,*,#376,.T.);
#531=ORIENTED_EDGE('',*,*,#375,.F.);
#532=ORIENTED_EDGE('',*,*,#376,.F.);
#533=ORIENTED_EDGE('',*,*,#314,.F.);
#534=ORIENTED_EDGE('',*,*,#347,.T.);
#535=ORIENTED_EDGE('',*,*,#325,.F.);
#536=ORIENTED_EDGE('',*,*,#327,.F.);
#537=ORIENTED_EDGE('',*,*,#361,.F.);
#538=ORIENTED_EDGE('',*,*,#311,.F.);
#539=ORIENTED_EDGE('',*,*,#338,.F.);
#540=ORIENTED_EDGE('',*,*,#355,.T.);
#541=ORIENTED_EDGE('',*,*,#371,.F.);
#542=ORIENTED_EDGE('',*,*,#362,.F.);
#543=TOROIDAL_SURFACE('',#599,40.,10.);
#544=TOROIDAL_SURFACE('',#608,50.75,5.75);
#545=TOROIDAL_SURFACE('',#616,15.195,9.6235);
#546=TOROIDAL_SURFACE('',#628,15.195,9.6235);
#547=TOROIDAL_SURFACE('',#650,46.0915,7.5975);
#548=TOROIDAL_SURFACE('',#659,50.1435,3.5455);
#549=ADVANCED_FACE('',(#138),#543,.T.);
#550=ADVANCED_FACE('',(#139),#124,.F.);
#551=ADVANCED_FACE('',(#140),#111,.T.);
#552=ADVANCED_FACE('',(#141),#544,.T.);
#553=ADVANCED_FACE('',(#142),#112,.F.);
#554=ADVANCED_FACE('',(#143),#125,.T.);
#555=ADVANCED_FACE('',(#144),#27,.T.);
#556=ADVANCED_FACE('',(#145),#545,.F.);
#557=ADVANCED_FACE('',(#146),#113,.F.);
#558=ADVANCED_FACE('',(#147),#126,.T.);
#559=ADVANCED_FACE('',(#148),#114,.T.);
#560=ADVANCED_FACE('',(#149),#115,.F.);
#561=ADVANCED_FACE('',(#150),#546,.F.);
#562=ADVANCED_FACE('',(#151),#28,.T.);
#563=ADVANCED_FACE('',(#152),#116,.T.);
#564=ADVANCED_FACE('',(#153),#127,.T.);
#565=ADVANCED_FACE('',(#154),#117,.T.);
#566=ADVANCED_FACE('',(#155),#118,.T.);
#567=ADVANCED_FACE('',(#156),#119,.T.);
#568=ADVANCED_FACE('',(#157),#120,.T.);
#569=ADVANCED_FACE('',(#158),#128,.T.);
#570=ADVANCED_FACE('',(#159),#129,.T.);
#571=ADVANCED_FACE('',(#160),#130,.T.);
#572=ADVANCED_FACE('',(#161),#131,.T.);
#573=ADVANCED_FACE('',(#162),#121,.T.);
#574=ADVANCED_FACE('',(#163),#132,.F.);
#575=ADVANCED_FACE('',(#164),#133,.T.);
#576=ADVANCED_FACE('',(#165),#547,.T.);
#577=ADVANCED_FACE('',(#166),#122,.T.);
#578=ADVANCED_FACE('',(#167,#13,#14),#134,.T.);
#579=ADVANCED_FACE('',(#168),#548,.T.);
#580=ADVANCED_FACE('',(#169),#123,.F.);
#581=ADVANCED_FACE('',(#170),#135,.F.);
#582=ADVANCED_FACE('',(#171),#136,.T.);
#583=ADVANCED_FACE('',(#172),#137,.T.);
#584=CLOSED_SHELL('',(#549,#550,#551,#552,#553,#554));
#585=CLOSED_SHELL('',(#555,#556,#557,#558,#559,#560,#561,#562,#563,#564,
#565,#566,#567,#568,#569,#570,#571,#572,#573,#574,#575,#576,#577,#578,#579,
#580,#581,#582,#583));
#586=DERIVED_UNIT_ELEMENT(#588,1.);
#587=DERIVED_UNIT_ELEMENT(#1181,-3.);
#588=(
MASS_UNIT()
NAMED_UNIT(*)
SI_UNIT(.KILO.,.GRAM.)
);
#589=DERIVED_UNIT((#586,#587));
#590=MEASURE_REPRESENTATION_ITEM('density measure',
POSITIVE_RATIO_MEASURE(7850.),#589);
#591=PROPERTY_DEFINITION_REPRESENTATION(#596,#593);
#592=PROPERTY_DEFINITION_REPRESENTATION(#597,#594);
#593=REPRESENTATION('material name',(#595),#1178);
#594=REPRESENTATION('density',(#590),#1178);
#595=DESCRIPTIVE_REPRESENTATION_ITEM('Steel','Steel');
#596=PROPERTY_DEFINITION('material property','material name',#1188);
#597=PROPERTY_DEFINITION('material property','density of part',#1188);
#598=AXIS2_PLACEMENT_3D('',#847,#668,#669);
#599=AXIS2_PLACEMENT_3D('',#848,#670,#671);
#600=AXIS2_PLACEMENT_3D('',#851,#672,#673);
#601=AXIS2_PLACEMENT_3D('',#852,#674,#675);
#602=AXIS2_PLACEMENT_3D('',#854,#676,#677);
#603=AXIS2_PLACEMENT_3D('',#855,#678,#679);
#604=AXIS2_PLACEMENT_3D('',#856,#680,#681);
#605=AXIS2_PLACEMENT_3D('',#857,#682,#683);
#606=AXIS2_PLACEMENT_3D('',#861,#685,#686);
#607=AXIS2_PLACEMENT_3D('',#862,#687,#688);
#608=AXIS2_PLACEMENT_3D('',#863,#689,#690);
#609=AXIS2_PLACEMENT_3D('',#866,#691,#692);
#610=AXIS2_PLACEMENT_3D('',#867,#693,#694);
#611=AXIS2_PLACEMENT_3D('',#868,#695,#696);
#612=AXIS2_PLACEMENT_3D('',#869,#697,#698);
#613=AXIS2_PLACEMENT_3D('',#872,#700,#701);
#614=AXIS2_PLACEMENT_3D('',#873,#702,#703);
#615=AXIS2_PLACEMENT_3D('',#949,#704,#705);
#616=AXIS2_PLACEMENT_3D('',#959,#706,#707);
#617=AXIS2_PLACEMENT_3D('',#962,#708,#709);
#618=AXIS2_PLACEMENT_3D('',#963,#710,#711);
#619=AXIS2_PLACEMENT_3D('',#964,#712,#713);
#620=AXIS2_PLACEMENT_3D('',#965,#714,#715);
#621=AXIS2_PLACEMENT_3D('',#968,#716,#717);
#622=AXIS2_PLACEMENT_3D('',#971,#720,#721);
#623=AXIS2_PLACEMENT_3D('',#977,#725,#726);
#624=AXIS2_PLACEMENT_3D('',#985,#728,#729);
#625=AXIS2_PLACEMENT_3D('',#986,#730,#731);
#626=AXIS2_PLACEMENT_3D('',#989,#732,#733);
#627=AXIS2_PLACEMENT_3D('',#993,#735,#736);
#628=AXIS2_PLACEMENT_3D('',#995,#738,#739);
#629=AXIS2_PLACEMENT_3D('',#998,#740,#741);
#630=AXIS2_PLACEMENT_3D('',#999,#742,#743);
#631=AXIS2_PLACEMENT_3D('',#1000,#744,#745);
#632=AXIS2_PLACEMENT_3D('',#1083,#746,#747);
#633=AXIS2_PLACEMENT_3D('',#1087,#749,#750);
#634=AXIS2_PLACEMENT_3D('',#1094,#752,#753);
#635=AXIS2_PLACEMENT_3D('',#1098,#756,#757);
#636=AXIS2_PLACEMENT_3D('',#1103,#759,#760);
#637=AXIS2_PLACEMENT_3D('',#1106,#762,#763);
#638=AXIS2_PLACEMENT_3D('',#1107,#764,#765);
#639=AXIS2_PLACEMENT_3D('',#1112,#767,#768);
#640=AXIS2_PLACEMENT_3D('',#1115,#770,#771);
#641=AXIS2_PLACEMENT_3D('',#1116,#772,#773);
#642=AXIS2_PLACEMENT_3D('',#1121,#778,#779);
#643=AXIS2_PLACEMENT_3D('',#1126,#784,#785);
#644=AXIS2_PLACEMENT_3D('',#1130,#788,#789);
#645=AXIS2_PLACEMENT_3D('',#1134,#792,#793);
#646=AXIS2_PLACEMENT_3D('',#1138,#796,#797);
#647=AXIS2_PLACEMENT_3D('',#1140,#799,#800);
#648=AXIS2_PLACEMENT_3D('',#1142,#802,#803);
#649=AXIS2_PLACEMENT_3D('',#1143,#804,#805);
#650=AXIS2_PLACEMENT_3D('',#1147,#808,#809);
#651=AXIS2_PLACEMENT_3D('',#1149,#810,#811);
#652=AXIS2_PLACEMENT_3D('',#1151,#812,#813);
#653=AXIS2_PLACEMENT_3D('',#1153,#814,#815);
#654=AXIS2_PLACEMENT_3D('',#1154,#816,#817);
#655=AXIS2_PLACEMENT_3D('',#1155,#818,#819);
#656=AXIS2_PLACEMENT_3D('',#1159,#821,#822);
#657=AXIS2_PLACEMENT_3D('',#1160,#823,#824);
#658=AXIS2_PLACEMENT_3D('',#1161,#825,#826);
#659=AXIS2_PLACEMENT_3D('',#1163,#828,#829);
#660=AXIS2_PLACEMENT_3D('',#1165,#830,#831);
#661=AXIS2_PLACEMENT_3D('',#1167,#832,#833);
#662=AXIS2_PLACEMENT_3D('',#1168,#834,#835);
#663=AXIS2_PLACEMENT_3D('',#1169,#836,#837);
#664=AXIS2_PLACEMENT_3D('',#1172,#839,#840);
#665=AXIS2_PLACEMENT_3D('',#1173,#841,#842);
#666=AXIS2_PLACEMENT_3D('',#1174,#843,#844);
#667=AXIS2_PLACEMENT_3D('',#1175,#845,#846);
#668=DIRECTION('axis',(0.,0.,1.));
#669=DIRECTION('refdir',(1.,0.,0.));
#670=DIRECTION('center_axis',(0.,1.,0.));
#671=DIRECTION('ref_axis',(0.,0.,1.));
#672=DIRECTION('center_axis',(0.,-1.,0.));
#673=DIRECTION('ref_axis',(-1.,0.,-1.22464679914735E-16));
#674=DIRECTION('center_axis',(0.,-1.,0.));
#675=DIRECTION('ref_axis',(-1.,0.,-1.22464679914735E-16));
#676=DIRECTION('center_axis',(-1.,0.,1.22464679914735E-16));
#677=DIRECTION('ref_axis',(-1.22464679914735E-16,0.,-1.));
#678=DIRECTION('center_axis',(0.,1.,0.));
#679=DIRECTION('ref_axis',(-1.,0.,-1.22464679914735E-16));
#680=DIRECTION('center_axis',(0.,1.,0.));
#681=DIRECTION('ref_axis',(0.,0.,1.));
#682=DIRECTION('center_axis',(0.,-1.,0.));
#683=DIRECTION('ref_axis',(1.,0.,0.));
#684=DIRECTION('',(0.,1.,0.));
#685=DIRECTION('center_axis',(0.,-1.,0.));
#686=DIRECTION('ref_axis',(1.,0.,0.));
#687=DIRECTION('center_axis',(0.,-1.,0.));
#688=DIRECTION('ref_axis',(1.,0.,0.));
#689=DIRECTION('center_axis',(0.,1.,0.));
#690=DIRECTION('ref_axis',(-1.,0.,0.));
#691=DIRECTION('center_axis',(0.,-1.,0.));
#692=DIRECTION('ref_axis',(-1.,0.,0.));
#693=DIRECTION('center_axis',(0.,-1.,0.));
#694=DIRECTION('ref_axis',(-1.,0.,0.));
#695=DIRECTION('center_axis',(1.22464679914735E-16,0.,-1.));
#696=DIRECTION('ref_axis',(1.,0.,1.22464679914735E-16));
#697=DIRECTION('center_axis',(0.,-1.,0.));
#698=DIRECTION('ref_axis',(1.,0.,0.));
#699=DIRECTION('',(0.,-1.,0.));
#700=DIRECTION('center_axis',(0.,1.,0.));
#701=DIRECTION('ref_axis',(1.,0.,0.));
#702=DIRECTION('center_axis',(0.,1.,0.));
#703=DIRECTION('ref_axis',(0.,0.,1.));
#704=DIRECTION('center_axis',(-0.00151829499671466,-2.0521572464927E-13,
0.999998847389487));
#705=DIRECTION('ref_axis',(0.999998847389487,0.,0.00151829499671466));
#706=DIRECTION('center_axis',(0.,-1.,-2.63677968348475E-16));
#707=DIRECTION('ref_axis',(0.,0.,-1.));
#708=DIRECTION('center_axis',(0.,-2.33731163078981E-16,1.));
#709=DIRECTION('ref_axis',(1.,0.,0.));
#710=DIRECTION('center_axis',(0.,-1.,-2.63677968348475E-16));
#711=DIRECTION('ref_axis',(-0.99999785670574,5.4592063376697E-19,-0.00207040670552151));
#712=DIRECTION('center_axis',(0.,1.,2.63677968348475E-16));
#713=DIRECTION('ref_axis',(-0.99999785670574,0.,-0.00207040670552151));
#714=DIRECTION('center_axis',(0.,-2.63677968348475E-16,1.));
#715=DIRECTION('ref_axis',(0.707106781186547,0.707106781186549,1.65272890387766E-16));
#716=DIRECTION('center_axis',(0.,-2.63677968348475E-16,1.));
#717=DIRECTION('ref_axis',(0.707106781186547,0.707106781186549,1.65272890387766E-16));
#718=DIRECTION('',(0.,2.63677968348475E-16,-1.));
#719=DIRECTION('',(0.,-2.63677968348475E-16,1.));
#720=DIRECTION('center_axis',(-1.,0.,0.));
#721=DIRECTION('ref_axis',(0.,2.63677968348475E-16,-1.));
#722=DIRECTION('',(0.,1.,2.63677968348475E-16));
#723=DIRECTION('',(0.,0.,-1.));
#724=DIRECTION('',(0.,-1.,-2.63677968348475E-16));
#725=DIRECTION('center_axis',(0.,-1.,-2.63677968348475E-16));
#726=DIRECTION('ref_axis',(-0.707106781186547,0.,-0.707106781186548));
#727=DIRECTION('',(0.,-1.,-2.63677968348475E-16));
#728=DIRECTION('center_axis',(0.,-1.,0.));
#729=DIRECTION('ref_axis',(-0.707106781186547,0.,-0.707106781186548));
#730=DIRECTION('center_axis',(0.,2.63677968348475E-16,-1.));
#731=DIRECTION('ref_axis',(-0.707106781186549,0.707106781186546,1.65272890387766E-16));
#732=DIRECTION('center_axis',(0.,-2.63677968348475E-16,1.));
#733=DIRECTION('ref_axis',(-0.707106781186549,0.707106781186546,1.65272890387766E-16));
#734=DIRECTION('',(0.,2.63677968348475E-16,-1.));
#735=DIRECTION('center_axis',(0.,2.33731163078981E-16,-1.));
#736=DIRECTION('ref_axis',(-1.,0.,0.));
#737=DIRECTION('',(0.,-2.63677968348475E-16,1.));
#738=DIRECTION('center_axis',(0.,-1.,-2.63677968348475E-16));
#739=DIRECTION('ref_axis',(0.,0.,-1.));
#740=DIRECTION('center_axis',(-0.00151829499655596,2.33730893677985E-16,
-0.999998847389488));
#741=DIRECTION('ref_axis',(-0.999998847389488,0.,0.00151829499655596));
#742=DIRECTION('center_axis',(0.,-1.,-2.63677968348475E-16));
#743=DIRECTION('ref_axis',(0.99999785670574,5.4592063376697E-19,-0.00207040670552151));
#744=DIRECTION('center_axis',(0.,1.,2.63677968348475E-16));
#745=DIRECTION('ref_axis',(0.99999785670574,0.,-0.00207040670552151));
#746=DIRECTION('center_axis',(0.,-1.,-2.63677968348475E-16));
#747=DIRECTION('ref_axis',(0.707106781186547,0.,-0.707106781186548));
#748=DIRECTION('',(0.,-1.,-2.63677968348475E-16));
#749=DIRECTION('center_axis',(0.,-1.,0.));
#750=DIRECTION('ref_axis',(0.707106781186547,0.,-0.707106781186548));
#751=DIRECTION('',(0.,-1.,-2.63677968348475E-16));
#752=DIRECTION('center_axis',(1.,0.,0.));
#753=DIRECTION('ref_axis',(0.,-2.63677968348475E-16,1.));
#754=DIRECTION('',(0.,-1.,-2.63677968348475E-16));
#755=DIRECTION('',(0.,0.,1.));
#756=DIRECTION('center_axis',(0.,2.63677968348475E-16,-1.));
#757=DIRECTION('ref_axis',(0.707106781186548,0.707106781186548,0.));
#758=DIRECTION('',(0.,2.63677968348475E-16,-1.));
#759=DIRECTION('center_axis',(0.707106752737423,-1.57009252185352E-16,0.707106809635671));
#760=DIRECTION('ref_axis',(0.707106809635671,1.57009239551403E-16,-0.707106752737423));
#761=DIRECTION('',(0.,-2.63677968348475E-16,1.));
#762=DIRECTION('center_axis',(0.707106781186547,0.,-0.707106781186548));
#763=DIRECTION('ref_axis',(0.707106781186548,-3.72896958937397E-16,0.707106781186547));
#764=DIRECTION('center_axis',(0.,-2.63677968348475E-16,1.));
#765=DIRECTION('ref_axis',(-0.707106781186548,0.707106781186548,3.14018491736755E-16));
#766=DIRECTION('',(0.,2.63677968348475E-16,-1.));
#767=DIRECTION('center_axis',(0.707106781186548,1.57009245868377E-16,-0.707106781186547));
#768=DIRECTION('ref_axis',(0.707106781186547,-1.57009245868378E-16,0.707106781186548));
#769=DIRECTION('',(0.,-2.63677968348475E-16,1.));
#770=DIRECTION('center_axis',(0.707106781186547,-1.57009245868378E-16,0.707106781186548));
#771=DIRECTION('ref_axis',(-0.707106781186548,-1.57009245868377E-16,0.707106781186547));
#772=DIRECTION('center_axis',(1.,0.,0.));
#773=DIRECTION('ref_axis',(0.,0.707106781186548,0.707106781186547));
#774=DIRECTION('',(-1.,0.,0.));
#775=DIRECTION('',(-1.,0.,0.));
#776=DIRECTION('',(-1.,0.,0.));
#777=DIRECTION('',(-1.,0.,0.));
#778=DIRECTION('center_axis',(-1.,0.,0.));
#779=DIRECTION('ref_axis',(0.,0.707106781186548,-0.707106781186547));
#780=DIRECTION('',(-1.,0.,0.));
#781=DIRECTION('',(-1.,0.,0.));
#782=DIRECTION('',(-1.,0.,0.));
#783=DIRECTION('',(1.,0.,0.));
#784=DIRECTION('center_axis',(0.,-2.63677968348475E-16,1.));
#785=DIRECTION('ref_axis',(-1.,0.,0.));
#786=DIRECTION('',(-1.,0.,0.));
#787=DIRECTION('',(0.,-1.,-2.63677968348475E-16));
#788=DIRECTION('center_axis',(0.,-2.63677968348475E-16,1.));
#789=DIRECTION('ref_axis',(-1.,0.,0.));
#790=DIRECTION('',(0.,-1.,-2.63677968348475E-16));
#791=DIRECTION('',(-1.,0.,0.));
#792=DIRECTION('center_axis',(-1.,0.,0.));
#793=DIRECTION('ref_axis',(0.,2.63677968348475E-16,-1.));
#794=DIRECTION('',(0.,-1.,-2.63677968348475E-16));
#795=DIRECTION('',(0.,0.,-1.));
#796=DIRECTION('center_axis',(0.,2.63677968348475E-16,-1.));
#797=DIRECTION('ref_axis',(1.,0.,0.));
#798=DIRECTION('',(1.,0.,0.));
#799=DIRECTION('center_axis',(-1.,0.,0.));
#800=DIRECTION('ref_axis',(0.,-0.0909090909090922,-0.995859195463938));
#801=DIRECTION('',(-1.,0.,0.));
#802=DIRECTION('center_axis',(0.,-1.,-2.63677968348475E-16));
#803=DIRECTION('ref_axis',(1.,0.,0.));
#804=DIRECTION('center_axis',(0.,2.63677968348475E-16,-1.));
#805=DIRECTION('ref_axis',(1.,0.,0.));
#806=DIRECTION('',(0.,-1.,-2.63677968348475E-16));
#807=DIRECTION('',(1.,0.,0.));
#808=DIRECTION('center_axis',(0.,1.,0.));
#809=DIRECTION('ref_axis',(0.,0.,1.));
#810=DIRECTION('center_axis',(0.,-1.,0.));
#811=DIRECTION('ref_axis',(1.,0.,0.));
#812=DIRECTION('center_axis',(-1.,0.,1.22780256825642E-16));
#813=DIRECTION('ref_axis',(-1.22780256825641E-16,0.,-1.));
#814=DIRECTION('center_axis',(0.,1.,0.));
#815=DIRECTION('ref_axis',(1.,0.,0.));
#816=DIRECTION('center_axis',(0.,1.,0.));
#817=DIRECTION('ref_axis',(1.,0.,0.));
#818=DIRECTION('center_axis',(0.,1.,0.));
#819=DIRECTION('ref_axis',(1.,0.,0.));
#820=DIRECTION('',(0.,-1.,0.));
#821=DIRECTION('center_axis',(0.,-1.,0.));
#822=DIRECTION('ref_axis',(-1.,0.,0.));
#823=DIRECTION('center_axis',(0.,-1.,0.));
#824=DIRECTION('ref_axis',(-1.,0.,0.));
#825=DIRECTION('center_axis',(0.,1.,0.));
#826=DIRECTION('ref_axis',(1.,0.,0.));
#827=DIRECTION('',(0.,0.,1.));
#828=DIRECTION('center_axis',(0.,1.,0.));
#829=DIRECTION('ref_axis',(-1.,0.,0.));
#830=DIRECTION('center_axis',(1.22457150886627E-16,0.,-1.));
#831=DIRECTION('ref_axis',(1.,0.,1.22457150886627E-16));
#832=DIRECTION('center_axis',(0.,1.,0.));
#833=DIRECTION('ref_axis',(1.,0.,0.));
#834=DIRECTION('center_axis',(0.,1.,0.));
#835=DIRECTION('ref_axis',(1.,0.,0.));
#836=DIRECTION('center_axis',(0.,1.,0.));
#837=DIRECTION('ref_axis',(1.,0.,0.));
#838=DIRECTION('',(0.,1.,0.));
#839=DIRECTION('center_axis',(0.,-1.,0.));
#840=DIRECTION('ref_axis',(1.,0.,0.));
#841=DIRECTION('center_axis',(0.,1.,0.));
#842=DIRECTION('ref_axis',(1.,0.,0.));
#843=DIRECTION('center_axis',(0.,-1.,-2.63677968348475E-16));
#844=DIRECTION('ref_axis',(0.,2.63677968348475E-16,-1.));
#845=DIRECTION('center_axis',(1.,0.,0.));
#846=DIRECTION('ref_axis',(0.,-2.63677968348475E-16,1.));
#847=CARTESIAN_POINT('',(0.,0.,0.));
#848=CARTESIAN_POINT('Origin',(0.,10.,0.));
#849=CARTESIAN_POINT('',(-6.12323399573677E-15,10.,-50.));
#850=CARTESIAN_POINT('',(-50.,10.,-6.12323399573677E-15));
#851=CARTESIAN_POINT('Origin',(0.,10.,0.));
#852=CARTESIAN_POINT('Origin',(0.,10.,0.));
#853=CARTESIAN_POINT('',(-4.89858719658941E-15,0.,-40.));
#854=CARTESIAN_POINT('Origin',(-4.89858719658941E-15,10.,-40.));
#855=CARTESIAN_POINT('Origin',(0.,0.,0.));
#856=CARTESIAN_POINT('Origin',(0.,0.,0.));
#857=CARTESIAN_POINT('Origin',(0.,200.,0.));
#858=CARTESIAN_POINT('',(-50.,200.,-6.12323399573677E-15));
#859=CARTESIAN_POINT('',(-50.,200.,-6.12323399573677E-15));
#860=CARTESIAN_POINT('',(50.,200.,0.));
#861=CARTESIAN_POINT('Origin',(0.,200.,0.));
#862=CARTESIAN_POINT('Origin',(0.,200.,0.));
#863=CARTESIAN_POINT('Origin',(0.,194.299122874504,0.));
#864=CARTESIAN_POINT('',(45.,194.299122874504,5.51091059616309E-15));
#865=CARTESIAN_POINT('',(-45.,194.299122874504,-5.51091059616309E-15));
#866=CARTESIAN_POINT('Origin',(0.,194.299122874504,0.));
#867=CARTESIAN_POINT('Origin',(0.,194.299122874504,0.));
#868=CARTESIAN_POINT('Origin',(50.75,194.299122874504,6.21508250567282E-15));
#869=CARTESIAN_POINT('Origin',(0.,200.,0.));
#870=CARTESIAN_POINT('',(-45.,5.,5.51091059616309E-15));
#871=CARTESIAN_POINT('',(-45.,200.,-5.51091059616309E-15));
#872=CARTESIAN_POINT('Origin',(0.,5.,0.));
#873=CARTESIAN_POINT('Origin',(0.,5.,0.));
#874=CARTESIAN_POINT('Ctrl Pts',(37.0228961489127,256.569771771027,-13.7209434655707));
#875=CARTESIAN_POINT('Ctrl Pts',(35.4764209285845,256.01482673689,-13.5633682193326));
#876=CARTESIAN_POINT('Ctrl Pts',(33.219885744459,255.192062870506,-13.1901509508753));
#877=CARTESIAN_POINT('Ctrl Pts',(29.8198576769253,253.951670402288,-12.1881201907071));
#878=CARTESIAN_POINT('Ctrl Pts',(27.5138863819079,253.108809414237,-11.0480118013176));
#879=CARTESIAN_POINT('Ctrl Pts',(26.316218948002,252.671978743796,-9.75764050865963));
#880=CARTESIAN_POINT('Ctrl Pts',(25.9598761062433,252.542518172164,-8.96820205507481));
#881=CARTESIAN_POINT('Ctrl Pts',(25.897130706055,252.520123768423,-8.5635436869888));
#882=CARTESIAN_POINT('Ctrl Pts',(25.8962933305136,252.520123768423,-8.36131859548765));
#883=CARTESIAN_POINT('Ctrl Pts',(37.2744547655059,256.331908086483,-13.6534026707936));
#884=CARTESIAN_POINT('Ctrl Pts',(35.828331787795,255.699733644083,-13.4472703787897));
#885=CARTESIAN_POINT('Ctrl Pts',(33.7319802775438,254.789173280159,-12.9604233051281));
#886=CARTESIAN_POINT('Ctrl Pts',(30.6408480265042,253.540075445719,-11.7589604270548));
#887=CARTESIAN_POINT('Ctrl Pts',(28.6380033469664,252.848791481315,-10.5222365292599));
#888=CARTESIAN_POINT('Ctrl Pts',(27.6683181438971,252.596616897138,-9.41706627964787));
#889=CARTESIAN_POINT('Ctrl Pts',(27.3857115743324,252.530249099924,-8.80953870299916));
#890=CARTESIAN_POINT('Ctrl Pts',(27.3366712484555,252.520044217711,-8.50901354098465));
#891=CARTESIAN_POINT('Ctrl Pts',(27.3359639045523,252.520123768423,-8.35913274833873));
#892=CARTESIAN_POINT('Ctrl Pts',(37.7775662037179,255.845574271333,-13.555695482989));
#893=CARTESIAN_POINT('Ctrl Pts',(36.5321387760459,255.047063735169,-13.2795798878888));
#894=CARTESIAN_POINT('Ctrl Pts',(34.7555037771885,253.921422606021,-12.6273551361268));
#895=CARTESIAN_POINT('Ctrl Pts',(32.2813228504539,252.499881715884,-11.1259203986511));
#896=CARTESIAN_POINT('Ctrl Pts',(30.8825817021248,251.900071016651,-9.72727771439659));
#897=CARTESIAN_POINT('Ctrl Pts',(30.3663879501089,251.849785953107,-8.89442705818709));
#898=CARTESIAN_POINT('Ctrl Pts',(30.2303782960957,251.85624232678,-8.56476424288219));
#899=CARTESIAN_POINT('Ctrl Pts',(30.2085019013551,251.860540245783,-8.42418479366793));
#900=CARTESIAN_POINT('Ctrl Pts',(30.2080535136955,251.860731293924,-8.35477206402899));
#901=CARTESIAN_POINT('Ctrl Pts',(38.6473933714736,254.967656705321,-13.5174179055507));
#902=CARTESIAN_POINT('Ctrl Pts',(37.7409493457044,253.8477797164,-13.2165911968002));
#903=CARTESIAN_POINT('Ctrl Pts',(36.4850877163951,252.243008989165,-12.505146087904));
#904=CARTESIAN_POINT('Ctrl Pts',(34.9057943288099,250.090785844856,-10.8937481011887));
#905=CARTESIAN_POINT('Ctrl Pts',(34.2600962393826,248.99900586818,-9.43074073067839));
#906=CARTESIAN_POINT('Ctrl Pts',(34.2338972137482,248.711244966283,-8.69573043830133));
#907=CARTESIAN_POINT('Ctrl Pts',(34.2513925600176,248.649619894003,-8.46905895068863));
#908=CARTESIAN_POINT('Ctrl Pts',(34.2577867244845,248.642433165544,-8.38808665104554));
#909=CARTESIAN_POINT('Ctrl Pts',(34.2576348576957,248.642632974206,-8.34862359784933));
#910=CARTESIAN_POINT('Ctrl Pts',(39.249800968043,254.326073325357,-13.6091439653816));
#911=CARTESIAN_POINT('Ctrl Pts',(38.5638093614942,252.960199380897,-13.3786600503054));
#912=CARTESIAN_POINT('Ctrl Pts',(37.6008593443386,250.955130580749,-12.8351044681374));
#913=CARTESIAN_POINT('Ctrl Pts',(36.339175602637,248.034052447735,-11.5329581863181));
#914=CARTESIAN_POINT('Ctrl Pts',(35.7207787174981,246.189359311282,-10.2463600899937));
#915=CARTESIAN_POINT('Ctrl Pts',(35.5602676409658,245.339603661905,-9.23381178542855));
#916=CARTESIAN_POINT('Ctrl Pts',(35.524870160582,245.096835996896,-8.71806330382691));
#917=CARTESIAN_POINT('Ctrl Pts',(35.5199681937982,245.056055885878,-8.4700926969545));
#918=CARTESIAN_POINT('Ctrl Pts',(35.5197822383663,245.056132118554,-8.34670728358795));
#919=CARTESIAN_POINT('Ctrl Pts',(39.5995366051127,253.94111832098,-13.7063321536713));
#920=CARTESIAN_POINT('Ctrl Pts',(39.0324956909923,252.427631864241,-13.5487569074332));
#921=CARTESIAN_POINT('Ctrl Pts',(38.205099456813,250.183730410466,-13.1755396389759));
#922=CARTESIAN_POINT('Ctrl Pts',(36.9584224987172,246.800841860782,-12.1735088788076));
#923=CARTESIAN_POINT('Ctrl Pts',(36.1128996905443,244.502130075188,-11.0334004894182));
#924=CARTESIAN_POINT('Ctrl Pts',(35.6737549647788,243.310773701259,-9.74302919676018));
#925=CARTESIAN_POINT('Ctrl Pts',(35.5430959228006,242.957699414989,-8.95359074317534));
#926=CARTESIAN_POINT('Ctrl Pts',(35.5200892760649,242.896623768423,-8.54893237508925));
#927=CARTESIAN_POINT('Ctrl Pts',(35.5197822383663,242.896623768423,-8.34670728358829));
#928=CARTESIAN_POINT('',(33.28558767805,255.215456970323,-13.1330349323518));
#929=CARTESIAN_POINT('',(39.5995366051126,253.94111832098,-13.7063321536713));
#930=CARTESIAN_POINT('Ctrl Pts',(33.2855876780841,255.215456970329,-13.1330349323556));
#931=CARTESIAN_POINT('Ctrl Pts',(34.7177515097181,255.215456970329,-13.1330349323556));
#932=CARTESIAN_POINT('Ctrl Pts',(36.0748975337806,255.118748768955,-13.198702464601));
#933=CARTESIAN_POINT('Ctrl Pts',(37.6757066593723,254.819637159748,-13.3588590978538));
#934=CARTESIAN_POINT('Ctrl Pts',(38.1929246169371,254.692487693663,-13.4245627205617));
#935=CARTESIAN_POINT('Ctrl Pts',(38.9898686725658,254.373639874934,-13.5607304988074));
#936=CARTESIAN_POINT('Ctrl Pts',(39.3364242408245,254.191268167693,-13.6332157443284));
#937=CARTESIAN_POINT('Ctrl Pts',(39.5995366051126,253.94111832098,-13.7063321536713));
#938=CARTESIAN_POINT('',(35.5197822383663,242.896623768423,-8.34670728358829));
#939=CARTESIAN_POINT('Ctrl Pts',(39.5995366051127,253.94111832098,-13.7063321536713));
#940=CARTESIAN_POINT('Ctrl Pts',(39.0324956909923,252.427631864241,-13.5487569074332));
#941=CARTESIAN_POINT('Ctrl Pts',(38.205099456813,250.183730410466,-13.1755396389759));
#942=CARTESIAN_POINT('Ctrl Pts',(36.9584224987172,246.800841860782,-12.1735088788076));
#943=CARTESIAN_POINT('Ctrl Pts',(36.1128996905443,244.502130075188,-11.0334004894182));
#944=CARTESIAN_POINT('Ctrl Pts',(35.6737549647788,243.310773701259,-9.74302919676018));
#945=CARTESIAN_POINT('Ctrl Pts',(35.5430959228006,242.957699414989,-8.95359074317534));
#946=CARTESIAN_POINT('Ctrl Pts',(35.5200892760649,242.896623768423,-8.54893237508925));
#947=CARTESIAN_POINT('Ctrl Pts',(35.5197822383663,242.896623768423,-8.34670728358829));
#948=CARTESIAN_POINT('',(25.8962933305136,252.520123768423,-8.3613185954872));
#949=CARTESIAN_POINT('Origin',(25.8962933305136,242.896623768423,-8.36131859548918));
#950=CARTESIAN_POINT('Ctrl Pts',(25.8962933305136,252.520123768423,-8.36131859548765));
#951=CARTESIAN_POINT('Ctrl Pts',(25.897130706055,252.520123768423,-8.5635436869888));
#952=CARTESIAN_POINT('Ctrl Pts',(25.9598761062433,252.542518172164,-8.96820205507481));
#953=CARTESIAN_POINT('Ctrl Pts',(26.316218948002,252.671978743796,-9.75764050865963));
#954=CARTESIAN_POINT('Ctrl Pts',(27.5138863819079,253.108809414237,-11.0480118013176));
#955=CARTESIAN_POINT('Ctrl Pts',(29.8198576769253,253.951670402288,-12.1881201907071));
#956=CARTESIAN_POINT('Ctrl Pts',(32.0895232700234,254.779685951317,-12.8570190040129));
#957=CARTESIAN_POINT('Ctrl Pts',(33.0422283153034,255.127158434141,-13.0797716823068));
#958=CARTESIAN_POINT('Ctrl Pts',(33.2852288081762,255.21573844309,-13.1331664717073));
#959=CARTESIAN_POINT('Origin',(41.0912758165968,242.896623768423,-8.3382481030141));
#960=CARTESIAN_POINT('',(35.5197758165969,242.896623768423,-8.3382481030141));
#961=CARTESIAN_POINT('',(25.8962758165968,252.520123768423,-8.33824810301409));
#962=CARTESIAN_POINT('Origin',(25.8962758165968,242.896623768423,-8.3382481030141));
#963=CARTESIAN_POINT('Origin',(41.0912758165968,252.520123768423,-8.33824810301409));
#964=CARTESIAN_POINT('Origin',(41.0912758165968,242.896623768423,-8.3382481030141));
#965=CARTESIAN_POINT('Origin',(25.8962758165969,242.896623768423,6.60350220265715));
#966=CARTESIAN_POINT('',(35.5197758165969,242.896623768423,13.4412523045476));
#967=CARTESIAN_POINT('',(25.8962758165969,252.520123768423,13.4412523045476));
#968=CARTESIAN_POINT('Origin',(25.8962758165969,242.896623768423,13.4412523045476));
#969=CARTESIAN_POINT('',(25.8962758165969,252.520123768423,6.60350220265715));
#970=CARTESIAN_POINT('',(35.5197758165969,242.896623768423,6.60350220265715));
#971=CARTESIAN_POINT('Origin',(35.5197758165969,252.520123768423,13.4412523045476));
#972=CARTESIAN_POINT('',(35.5197758165969,220.,-8.3382481030141));
#973=CARTESIAN_POINT('',(35.5197758165969,255.052623768423,-8.33824810301409));
#974=CARTESIAN_POINT('',(35.5197758165969,220.,13.4412523045476));
#975=CARTESIAN_POINT('',(35.5197758165969,220.,6.77482476494337));
#976=CARTESIAN_POINT('',(35.5197758165969,252.520123768423,13.4412523045476));
#977=CARTESIAN_POINT('Origin',(41.0912758165968,255.052623768423,-8.33824810301409));
#978=CARTESIAN_POINT('',(41.0912758165968,252.520123768423,-13.9097481030141));
#979=CARTESIAN_POINT('Ctrl Pts',(41.0912758165968,252.520123768423,-13.9097481030141));
#980=CARTESIAN_POINT('Ctrl Pts',(40.6115904601057,252.977485810447,-13.9097481030141));
#981=CARTESIAN_POINT('Ctrl Pts',(40.1032197538155,253.46224967191,-13.8463008829225));
#982=CARTESIAN_POINT('Ctrl Pts',(39.5995366051126,253.94111832098,-13.7063321536713));
#983=CARTESIAN_POINT('',(41.0912758165968,220.,-13.9097476954524));
#984=CARTESIAN_POINT('',(41.0912758165968,255.052623768423,-13.9097481030141));
#985=CARTESIAN_POINT('Origin',(41.0912758165968,220.,-8.3382481030141));
#986=CARTESIAN_POINT('Origin',(-24.3765005066395,242.896623768423,-7.07199800112368));
#987=CARTESIAN_POINT('',(-34.0000005066395,242.896623768423,13.4412523045476));
#988=CARTESIAN_POINT('',(-24.3765005066395,252.520123768423,13.4412523045476));
#989=CARTESIAN_POINT('Origin',(-24.3765005066395,242.896623768423,13.4412523045476));
#990=CARTESIAN_POINT('',(-34.0000005066395,242.896623768423,-8.3382481030141));
#991=CARTESIAN_POINT('',(-34.0000005066395,242.896623768423,-7.07199800112368));
#992=CARTESIAN_POINT('',(-24.3765005066395,252.520123768423,-8.33824810301409));
#993=CARTESIAN_POINT('Origin',(-24.3765005066395,242.896623768423,-8.3382481030141));
#994=CARTESIAN_POINT('',(-24.3765005066395,252.520123768423,-7.07199800112368));
#995=CARTESIAN_POINT('Origin',(-39.5715005066395,242.896623768423,-8.3382481030141));
#996=CARTESIAN_POINT('',(-34.000006928409,242.896623768423,-8.34670728358741));
#997=CARTESIAN_POINT('',(-24.3765180205562,252.520123768423,-8.36131859548676));
#998=CARTESIAN_POINT('Origin',(-24.3765180205562,242.896623768423,-8.36131859548676));
#999=CARTESIAN_POINT('Origin',(-39.5715005066395,252.520123768423,-8.33824810301409));
#1000=CARTESIAN_POINT('Origin',(-39.5715005066395,242.896623768423,-8.3382481030141));
#1001=CARTESIAN_POINT('Ctrl Pts',(-38.0797612951553,253.94111832098,-13.7063321536713));
#1002=CARTESIAN_POINT('Ctrl Pts',(-37.5129097669412,252.428137353346,-13.5488095359651));
#1003=CARTESIAN_POINT('Ctrl Pts',(-36.6855343506977,250.184307965518,-13.1757847667033));
#1004=CARTESIAN_POINT('Ctrl Pts',(-35.438660530595,246.80090217239,-12.1735470067391));
#1005=CARTESIAN_POINT('Ctrl Pts',(-34.5929353535216,244.501635090506,-11.0331824529145));
#1006=CARTESIAN_POINT('Ctrl Pts',(-34.153996281743,243.310822884709,-9.74312560806653));
#1007=CARTESIAN_POINT('Ctrl Pts',(-34.0232903351022,242.957620249239,-8.95356507820762));
#1008=CARTESIAN_POINT('Ctrl Pts',(-34.000313964116,242.896623768423,-8.54893106343344));
#1009=CARTESIAN_POINT('Ctrl Pts',(-34.000006928409,242.896623768423,-8.34670728358741));
#1010=CARTESIAN_POINT('Ctrl Pts',(-37.8466042037755,254.197754990565,-13.6415400281449));
#1011=CARTESIAN_POINT('Ctrl Pts',(-37.2004710752259,252.783149075924,-13.4354505630316));
#1012=CARTESIAN_POINT('Ctrl Pts',(-36.2836572384925,250.698327486367,-12.9489128344268));
#1013=CARTESIAN_POINT('Ctrl Pts',(-35.0275641178783,247.623306263343,-11.7468792691538));
#1014=CARTESIAN_POINT('Ctrl Pts',(-34.3334062318086,245.627043096357,-10.509648647569));
#1015=CARTESIAN_POINT('Ctrl Pts',(-34.0786311792076,244.663446409679,-9.40475490439876));
#1016=CARTESIAN_POINT('Ctrl Pts',(-34.0110694707783,244.38373295345,-8.79707570572297));
#1017=CARTESIAN_POINT('Ctrl Pts',(-34.0002343299517,244.336245360711,-8.49658714798186));
#1018=CARTESIAN_POINT('Ctrl Pts',(-34.000006928409,244.336296001843,-8.34670728358741));
#1019=CARTESIAN_POINT('Ctrl Pts',(-37.3698934447869,254.711022419649,-13.5493890922989));
#1020=CARTESIAN_POINT('Ctrl Pts',(-36.5533979177841,253.493157572982,-13.2733321190741));
#1021=CARTESIAN_POINT('Ctrl Pts',(-35.4187462952952,251.725752120742,-12.621817717117));
#1022=CARTESIAN_POINT('Ctrl Pts',(-33.9889036975115,249.266581189644,-11.1193115997441));
#1023=CARTESIAN_POINT('Ctrl Pts',(-33.3859028929393,247.874155145133,-9.71988994610393));
#1024=CARTESIAN_POINT('Ctrl Pts',(-33.3320546956287,247.362559494624,-8.88745717202325));
#1025=CARTESIAN_POINT('Ctrl Pts',(-33.3372421997954,247.228947783202,-8.55762746295346));
#1026=CARTESIAN_POINT('Ctrl Pts',(-33.3407684652248,247.208240023312,-8.41712077435266));
#1027=CARTESIAN_POINT('Ctrl Pts',(-33.3406162533178,247.208391138346,-8.34770843430411));
#1028=CARTESIAN_POINT('Ctrl Pts',(-36.5093471760754,255.59840823296,-13.5209239131872));
#1029=CARTESIAN_POINT('Ctrl Pts',(-35.3646414218121,254.712531300069,-13.220218235373));
#1030=CARTESIAN_POINT('Ctrl Pts',(-33.7481003692055,253.462488459069,-12.5098435162496));
#1031=CARTESIAN_POINT('Ctrl Pts',(-31.5839782054194,251.895647557384,-10.8975010528861));
#1032=CARTESIAN_POINT('Ctrl Pts',(-30.4873890973116,251.255301198145,-9.43394804506387));
#1033=CARTESIAN_POINT('Ctrl Pts',(-30.1947578683549,251.231585712911,-8.69969554975198));
#1034=CARTESIAN_POINT('Ctrl Pts',(-30.1311496753037,251.250722120581,-8.47292811282293));
#1035=CARTESIAN_POINT('Ctrl Pts',(-30.1228424155299,251.257753041321,-8.39205721652813));
#1036=CARTESIAN_POINT('Ctrl Pts',(-30.1225215046069,251.257977743546,-8.3525944570912));
#1037=CARTESIAN_POINT('Ctrl Pts',(-35.8804587638452,256.212976244211,-13.6196322734051));
#1038=CARTESIAN_POINT('Ctrl Pts',(-34.4849787635895,255.542422706517,-13.3892644154083));
#1039=CARTESIAN_POINT('Ctrl Pts',(-32.4676860351621,254.584497437235,-12.8462361867769));
#1040=CARTESIAN_POINT('Ctrl Pts',(-29.5310049522945,253.331324192642,-11.5437857333956));
#1041=CARTESIAN_POINT('Ctrl Pts',(-27.6796082167264,252.716572205163,-10.2570640131827));
#1042=CARTESIAN_POINT('Ctrl Pts',(-26.8244821030999,252.558443817698,-9.24512765238898));
#1043=CARTESIAN_POINT('Ctrl Pts',(-26.5788481887166,252.524310290602,-8.72932777440273));
#1044=CARTESIAN_POINT('Ctrl Pts',(-26.5366658662123,252.520003234913,-8.48142437057627));
#1045=CARTESIAN_POINT('Ctrl Pts',(-26.5360238816143,252.520123768423,-8.35803982476374));
#1046=CARTESIAN_POINT('Ctrl Pts',(-35.5031208389554,256.569771771028,-13.7209434655707));
#1047=CARTESIAN_POINT('Ctrl Pts',(-33.9571621256443,256.015012082895,-13.5634208478644));
#1048=CARTESIAN_POINT('Ctrl Pts',(-31.7006837177072,255.192274640691,-13.1903960786026));
#1049=CARTESIAN_POINT('Ctrl Pts',(-28.3001187537913,253.951692516545,-12.1881583186389));
#1050=CARTESIAN_POINT('Ctrl Pts',(-25.9935955435906,253.108627919854,-11.0477937648138));
#1051=CARTESIAN_POINT('Ctrl Pts',(-24.7964889841946,252.671996777728,-9.75773691996591));
#1052=CARTESIAN_POINT('Ctrl Pts',(-24.4400182206286,252.542489144722,-8.96817639010706));
#1053=CARTESIAN_POINT('Ctrl Pts',(-24.3773553906663,252.520123768423,-8.56354237533301));
#1054=CARTESIAN_POINT('Ctrl Pts',(-24.3765180205562,252.520123768423,-8.36131859548676));
#1055=CARTESIAN_POINT('',(-38.0797612951553,253.94111832098,-13.7063321536713));
#1056=CARTESIAN_POINT('',(-31.765812367976,255.215456970302,-13.133034932339));
#1057=CARTESIAN_POINT('Ctrl Pts',(-38.0797612951553,253.94111832098,-13.7063321536713));
#1058=CARTESIAN_POINT('Ctrl Pts',(-37.980568702781,254.035424082112,-13.6787674810363));
#1059=CARTESIAN_POINT('Ctrl Pts',(-37.8705379707686,254.119141343497,-13.6513691830771));
#1060=CARTESIAN_POINT('Ctrl Pts',(-37.4298528838465,254.4045230406,-13.5514627941809));
#1061=CARTESIAN_POINT('Ctrl Pts',(-37.0393117046121,254.55781856326,-13.4834867866852));
#1062=CARTESIAN_POINT('Ctrl Pts',(-35.4108262622876,255.054366102905,-13.2504677412813));
#1063=CARTESIAN_POINT('Ctrl Pts',(-33.6228995708907,255.215456970329,-13.1330349323556));
#1064=CARTESIAN_POINT('Ctrl Pts',(-31.7658123681267,255.215456970329,-13.1330349323556));
#1065=CARTESIAN_POINT('Ctrl Pts',(-31.7654290521983,255.215731799512,-13.1332207830718));
#1066=CARTESIAN_POINT('Ctrl Pts',(-31.5225871593871,255.127210043431,-13.0798635005848));
#1067=CARTESIAN_POINT('Ctrl Pts',(-30.5699856976376,254.779777374387,-12.8571490261702));
#1068=CARTESIAN_POINT('Ctrl Pts',(-28.3001187537913,253.951692516545,-12.1881583186389));
#1069=CARTESIAN_POINT('Ctrl Pts',(-25.9935955435906,253.108627919854,-11.0477937648138));
#1070=CARTESIAN_POINT('Ctrl Pts',(-24.7964889841946,252.671996777728,-9.75773691996591));
#1071=CARTESIAN_POINT('Ctrl Pts',(-24.4400182206286,252.542489144722,-8.96817639010706));
#1072=CARTESIAN_POINT('Ctrl Pts',(-24.3773553906663,252.520123768423,-8.56354237533301));
#1073=CARTESIAN_POINT('Ctrl Pts',(-24.3765180205562,252.520123768423,-8.36131859548676));
#1074=CARTESIAN_POINT('Ctrl Pts',(-34.000006928409,242.896623768423,-8.34670728358741));
#1075=CARTESIAN_POINT('Ctrl Pts',(-34.000313964116,242.896623768423,-8.54893106343344));
#1076=CARTESIAN_POINT('Ctrl Pts',(-34.0232903351022,242.957620249239,-8.95356507820762));
#1077=CARTESIAN_POINT('Ctrl Pts',(-34.153996281743,243.310822884709,-9.74312560806653));
#1078=CARTESIAN_POINT('Ctrl Pts',(-34.5929353535216,244.501635090506,-11.0331824529145));
#1079=CARTESIAN_POINT('Ctrl Pts',(-35.438660530595,246.80090217239,-12.1735470067391));
#1080=CARTESIAN_POINT('Ctrl Pts',(-36.6855343506977,250.184307965518,-13.1757847667033));
#1081=CARTESIAN_POINT('Ctrl Pts',(-37.5129097669412,252.428137353346,-13.5488095359651));
#1082=CARTESIAN_POINT('Ctrl Pts',(-38.0797612951553,253.94111832098,-13.7063321536713));
#1083=CARTESIAN_POINT('Origin',(-39.5715005066395,255.052623768423,-8.33824810301409));
#1084=CARTESIAN_POINT('',(-34.0000005066395,220.,-8.3382481030141));
#1085=CARTESIAN_POINT('',(-34.0000005066395,255.052623768423,-8.33824810301409));
#1086=CARTESIAN_POINT('',(-39.5715005066395,220.,-13.9097481030141));
#1087=CARTESIAN_POINT('Origin',(-39.5715005066395,220.,-8.3382481030141));
#1088=CARTESIAN_POINT('',(-39.5715005066395,252.520123768423,-13.9097481030141));
#1089=CARTESIAN_POINT('',(-39.5715005066395,255.052623768423,-13.9097481030141));
#1090=CARTESIAN_POINT('Ctrl Pts',(-38.0797612951552,253.94111832098,-13.7063321536713));
#1091=CARTESIAN_POINT('Ctrl Pts',(-38.5834444438582,253.46224967191,-13.8463008829225));
#1092=CARTESIAN_POINT('Ctrl Pts',(-39.0918151501484,252.977485810447,-13.9097481030141));
#1093=CARTESIAN_POINT('Ctrl Pts',(-39.5715005066395,252.520123768423,-13.9097481030141));
#1094=CARTESIAN_POINT('Origin',(-34.0000005066395,252.520123768423,-13.9097481030141));
#1095=CARTESIAN_POINT('',(-34.0000005066395,220.,13.4412523045476));
#1096=CARTESIAN_POINT('',(-34.0000005066395,252.520123768423,13.4412523045476));
#1097=CARTESIAN_POINT('',(-34.0000005066395,220.,-6.90067543883746));
#1098=CARTESIAN_POINT('Origin',(36.5327758165969,252.520123768423,-7.07199779734285));
#1099=CARTESIAN_POINT('',(41.5977758165969,252.520123768423,13.4412523045476));
#1100=CARTESIAN_POINT('',(41.5977758165969,252.520123768423,-13.9097476954524));
#1101=CARTESIAN_POINT('',(41.5977758165969,252.520123768423,-7.07199779734285));
#1102=CARTESIAN_POINT('',(36.5327758165969,257.585123768423,-8.84474810301409));
#1103=CARTESIAN_POINT('Origin',(36.5327758165969,252.520123768423,-8.84474810301409));
#1104=CARTESIAN_POINT('',(36.5327758165969,257.585123768423,8.37625230454756));
#1105=CARTESIAN_POINT('',(36.5327758165969,257.585123768423,-7.07199779734285));
#1106=CARTESIAN_POINT('Origin',(36.5327758165969,252.520123768423,8.37625230454756));
#1107=CARTESIAN_POINT('Origin',(-35.0130005972087,252.520123768423,6.60350220265715));
#1108=CARTESIAN_POINT('',(-35.0130005972087,257.585123768423,8.37625230454756));
#1109=CARTESIAN_POINT('',(-35.0130005972087,257.585123768423,-8.84474810301409));
#1110=CARTESIAN_POINT('',(-35.0130005972087,257.585123768423,6.60350220265715));
#1111=CARTESIAN_POINT('',(-40.0780005972087,252.520123768423,-13.9097481030141));
#1112=CARTESIAN_POINT('Origin',(-35.0130005972087,252.520123768423,-8.84474810301409));
#1113=CARTESIAN_POINT('',(-40.0780005972087,252.520123768423,13.4412523045476));
#1114=CARTESIAN_POINT('',(-40.0780005972087,252.520123768423,6.60350220265715));
#1115=CARTESIAN_POINT('Origin',(-35.0130005972087,252.520123768423,8.37625230454756));
#1116=CARTESIAN_POINT('Origin',(-35.5195005292818,252.520123768423,8.37625230454756));
#1117=CARTESIAN_POINT('',(35.5197758165969,252.520123768423,13.4412523045476));
#1118=CARTESIAN_POINT('',(35.5197758165969,252.520123768423,13.4412523045476));
#1119=CARTESIAN_POINT('',(35.5197758165969,252.520123768423,13.4412523045476));
#1120=CARTESIAN_POINT('',(-35.5195005292818,257.585123768423,8.37625230454756));
#1121=CARTESIAN_POINT('Origin',(-38.5585005745664,252.520123768423,-8.84474810301409));
#1122=CARTESIAN_POINT('',(-38.5585005745664,252.520123768423,-13.9097481030141));
#1123=CARTESIAN_POINT('',(-38.5585005745664,255.215456970329,-13.1330349323556));
#1124=CARTESIAN_POINT('',(-38.5585005745664,252.520123768423,-13.9097481030141));
#1125=CARTESIAN_POINT('',(-38.5585005745664,257.585123768423,-8.84474810301409));
#1126=CARTESIAN_POINT('Origin',(-34.0000005066395,257.585123768423,13.4412523045476));
#1127=CARTESIAN_POINT('',(41.5977758165969,220.,13.4412523045476));
#1128=CARTESIAN_POINT('',(21.0198879115916,220.,13.4412523045476));
#1129=CARTESIAN_POINT('',(41.5977758165969,257.585123768423,13.4412523045476));
#1130=CARTESIAN_POINT('Origin',(-34.0000005066395,257.585123768423,13.4412523045476));
#1131=CARTESIAN_POINT('',(-40.0780005972087,220.,13.4412523045476));
#1132=CARTESIAN_POINT('',(-40.0780005972087,257.585123768423,13.4412523045476));
#1133=CARTESIAN_POINT('',(-16.7790002500266,220.,13.4412523045476));
#1134=CARTESIAN_POINT('Origin',(-40.0780005972087,257.585123768423,13.4412523045476));
#1135=CARTESIAN_POINT('',(-40.0780005972087,220.,-13.9097481030141));
#1136=CARTESIAN_POINT('',(-40.0780005972087,257.585123768423,-13.9097481030141));
#1137=CARTESIAN_POINT('',(-40.0780005972087,220.,6.77482476494337));
#1138=CARTESIAN_POINT('Origin',(-40.0780005972087,257.585123768423,-13.9097481030141));
#1139=CARTESIAN_POINT('',(-19.8180002953112,220.,-13.9097481030141));
#1140=CARTESIAN_POINT('Origin',(-34.0000005066395,258.091623768423,-8.36131859548676));
#1141=CARTESIAN_POINT('',(-34.0000005066395,252.520123768423,-8.36131859548676));
#1142=CARTESIAN_POINT('Origin',(-37.0390005519241,257.585123768423,-0.234247899233263));
#1143=CARTESIAN_POINT('Origin',(-40.0780005972087,257.585123768423,-13.9097481030141));
#1144=CARTESIAN_POINT('',(41.5977758165969,220.,-13.9097476954524));
#1145=CARTESIAN_POINT('',(41.5977758165969,257.585123768423,-13.9097476954524));
#1146=CARTESIAN_POINT('',(17.9808879115916,220.,-13.9097476954524));
#1147=CARTESIAN_POINT('Origin',(0.442000006586309,212.4025,0.108397225339183));
#1148=CARTESIAN_POINT('',(0.442000006586304,220.,-45.9831027746608));
#1149=CARTESIAN_POINT('Origin',(0.442000006586309,220.,0.108397225339183));
#1150=CARTESIAN_POINT('',(0.442000006586303,212.4025,-53.5806027746608));
#1151=CARTESIAN_POINT('Origin',(0.442000006586304,212.4025,-45.9831027746608));
#1152=CARTESIAN_POINT('',(-53.2469999934137,212.4025,0.10839722533919));
#1153=CARTESIAN_POINT('Origin',(0.442000006586309,212.4025,0.108397225339183));
#1154=CARTESIAN_POINT('Origin',(0.442000006586309,212.4025,0.108397225339183));
#1155=CARTESIAN_POINT('Origin',(0.442000006586309,138.96,0.108397225339183));
#1156=CARTESIAN_POINT('',(-53.2469999934137,142.469134936135,0.10839722533919));
#1157=CARTESIAN_POINT('',(-53.2469999934137,138.96,0.10839722533919));
#1158=CARTESIAN_POINT('',(54.1310000065863,142.469134936135,0.10839722533919));
#1159=CARTESIAN_POINT('Origin',(0.442000006586309,142.469134936135,0.108397225339183));
#1160=CARTESIAN_POINT('Origin',(0.442000006586309,142.469134936135,0.108397225339183));
#1161=CARTESIAN_POINT('Origin',(0.442000006586309,220.,0.108397225339183));
#1162=CARTESIAN_POINT('',(41.5977758165969,220.,-6.90067523505663));
#1163=CARTESIAN_POINT('Origin',(0.442000006586309,142.469134936135,0.108397225339183));
#1164=CARTESIAN_POINT('',(51.0920000065863,138.96,0.108397225339189));
#1165=CARTESIAN_POINT('Origin',(50.5855000065863,142.469134936135,0.108397225339189));
#1166=CARTESIAN_POINT('',(-50.2079999934137,138.96,0.108397225339189));
#1167=CARTESIAN_POINT('Origin',(0.442000006586309,138.96,0.108397225339183));
#1168=CARTESIAN_POINT('Origin',(0.442000006586309,138.96,0.108397225339183));
#1169=CARTESIAN_POINT('Origin',(0.442000006586309,138.96,0.108397225339183));
#1170=CARTESIAN_POINT('',(-50.2079999934137,216.961,0.108397225339177));
#1171=CARTESIAN_POINT('',(-50.2079999934137,138.96,0.108397225339189));
#1172=CARTESIAN_POINT('Origin',(0.442000006586309,216.961,0.108397225339183));
#1173=CARTESIAN_POINT('Origin',(0.442000006586309,216.961,0.108397225339183));
#1174=CARTESIAN_POINT('Origin',(-37.0390005519241,252.520123768423,-0.234247899233265));
#1175=CARTESIAN_POINT('Origin',(41.5977758165969,257.585123768423,-13.9097476954524));
#1176=UNCERTAINTY_MEASURE_WITH_UNIT(LENGTH_MEASURE(0.01),#1180,
'DISTANCE_ACCURACY_VALUE',
'Maximum model space distance between geometric entities at asserted c
onnectivities');
#1177=UNCERTAINTY_MEASURE_WITH_UNIT(LENGTH_MEASURE(0.01),#1180,
'DISTANCE_ACCURACY_VALUE',
'Maximum model space distance between geometric entities at asserted c
onnectivities');
#1178=(
GEOMETRIC_REPRESENTATION_CONTEXT(3)
GLOBAL_UNCERTAINTY_ASSIGNED_CONTEXT((#1176))
GLOBAL_UNIT_ASSIGNED_CONTEXT((#1180,#1182,#1183))
REPRESENTATION_CONTEXT('','3D')
);
#1179=(
GEOMETRIC_REPRESENTATION_CONTEXT(3)
GLOBAL_UNCERTAINTY_ASSIGNED_CONTEXT((#1177))
GLOBAL_UNIT_ASSIGNED_CONTEXT((#1180,#1182,#1183))
REPRESENTATION_CONTEXT('','3D')
);
#1180=(
LENGTH_UNIT()
NAMED_UNIT(*)
SI_UNIT(.MILLI.,.METRE.)
);
#1181=(
LENGTH_UNIT()
NAMED_UNIT(*)
SI_UNIT($,.METRE.)
);
#1182=(
NAMED_UNIT(*)
PLANE_ANGLE_UNIT()
SI_UNIT($,.RADIAN.)
);
#1183=(
NAMED_UNIT(*)
SI_UNIT($,.STERADIAN.)
SOLID_ANGLE_UNIT()
);
#1184=SHAPE_DEFINITION_REPRESENTATION(#1185,#1186);
#1185=PRODUCT_DEFINITION_SHAPE('',$,#1188);
#1186=SHAPE_REPRESENTATION('',(#598),#1178);
#1187=PRODUCT_DEFINITION_CONTEXT('part definition',#1192,'design');
#1188=PRODUCT_DEFINITION('2026-07-15-11-54-43-637','umbrella cover',#1189,
#1187);
#1189=PRODUCT_DEFINITION_FORMATION('',$,#1194);
#1190=PRODUCT_RELATED_PRODUCT_CATEGORY('umbrella cover',
'umbrella cover',(#1194));
#1191=APPLICATION_PROTOCOL_DEFINITION('international standard',
'automotive_design',2009,#1192);
#1192=APPLICATION_CONTEXT(
'Core Data for Automotive Mechanical Design Process');
#1193=PRODUCT_CONTEXT('part definition',#1192,'mechanical');
#1194=PRODUCT('2026-07-15-11-54-43-637','umbrella cover',$,(#1193));
#1195=PRESENTATION_STYLE_ASSIGNMENT((#1198));
#1196=PRESENTATION_STYLE_ASSIGNMENT((#1199));
#1197=PRESENTATION_STYLE_ASSIGNMENT((#1200));
#1198=SURFACE_STYLE_USAGE(.BOTH.,#1201);
#1199=SURFACE_STYLE_USAGE(.BOTH.,#1202);
#1200=SURFACE_STYLE_USAGE(.BOTH.,#1203);
#1201=SURFACE_SIDE_STYLE('',(#1204));
#1202=SURFACE_SIDE_STYLE('',(#1205));
#1203=SURFACE_SIDE_STYLE('',(#1206));
#1204=SURFACE_STYLE_FILL_AREA(#1207);
#1205=SURFACE_STYLE_FILL_AREA(#1208);
#1206=SURFACE_STYLE_FILL_AREA(#1209);
#1207=FILL_AREA_STYLE('Steel - Satin',(#1210));
#1208=FILL_AREA_STYLE('ABS (White)',(#1211));
#1209=FILL_AREA_STYLE('EPX 86FR (with Carbon M2 M3 L1 3D Printers)',(#1212));
#1210=FILL_AREA_STYLE_COLOUR('Steel - Satin',#1213);
#1211=FILL_AREA_STYLE_COLOUR('ABS (White)',#1214);
#1212=FILL_AREA_STYLE_COLOUR(
'EPX 86FR (with Carbon M2 M3 L1 3D Printers)',#1215);
#1213=COLOUR_RGB('Steel - Satin',0.627450980392157,0.627450980392157,0.627450980392157);
#1214=COLOUR_RGB('ABS (White)',0.964705882352941,0.964705882352941,0.952941176470588);
#1215=COLOUR_RGB('EPX 86FR (with Carbon M2 M3 L1 3D Printers)',0.247058823529412,
0.247058823529412,0.247058823529412);
ENDSEC;
END-ISO-10303-21;
